<?xml version="1.0" standalone="no"?>
<!DOCTYPE svg PUBLIC "-//W3C//DTD SVG 20010904//EN"
 "http://www.w3.org/TR/2001/REC-SVG-20010904/DTD/svg10.dtd">
<svg version="1.0" xmlns="http://www.w3.org/2000/svg"
 width="1400.000000pt" height="1400.000000pt" viewBox="0 0 1400.000000 1400.000000"
 preserveAspectRatio="xMidYMid meet">
<metadata>
Created by potrace 1.14, written by Peter Selinger 2001-2017
</metadata>
<g transform="translate(0.000000,1400.000000) scale(0.100000,-0.100000)"
fill="#000000" stroke="none">
<path d="M6600 11289 c-1058 -91 -2041 -536 -2783 -1258 -378 -368 -634 -721
-868 -1195 -139 -281 -221 -503 -299 -806 -84 -330 -119 -588 -127 -940 -6
-264 4 -449 38 -685 19 -133 72 -402 80 -409 2 -2 320 -6 705 -9 l702 -5 153
124 c85 69 163 127 174 129 11 3 132 20 268 39 136 18 252 37 257 42 5 5 75
153 155 329 81 176 152 330 158 343 6 13 82 67 181 129 94 59 172 107 174 108
1 1 64 206 138 456 l136 454 132 170 c73 93 179 230 236 303 l104 132 221 0
220 0 195 101 c107 56 322 168 477 250 l281 149 56 -25 55 -24 3 -72 3 -71
140 -75 c77 -41 144 -78 148 -82 5 -5 53 -194 108 -421 54 -228 100 -415 102
-416 1 -1 78 -23 172 -49 93 -25 171 -48 173 -50 2 -2 18 -102 34 -222 17
-120 31 -219 32 -220 0 -1 73 -13 161 -28 88 -14 163 -29 166 -33 4 -4 46
-212 94 -462 47 -250 89 -465 92 -477 4 -17 32 -31 156 -74 174 -61 142 -35
355 -292 l147 -178 693 4 c418 2 696 7 702 13 13 13 75 332 95 484 79 624 11
1281 -192 1874 -266 775 -743 1450 -1389 1968 -663 530 -1461 860 -2334 964
-159 19 -717 27 -880 13z"/>
<path d="M7525 9119 c-93 -50 -304 -160 -467 -245 l-296 -154 -219 0 -219 0
-231 -296 -231 -296 -136 -456 c-76 -251 -141 -459 -145 -462 -4 -3 -83 -52
-176 -110 -149 -93 -170 -110 -185 -145 -26 -60 -302 -659 -305 -663 -2 -2
-125 -20 -274 -40 l-271 -37 -135 -109 c-74 -59 -135 -111 -135 -115 0 -3 75
-5 167 -3 l168 3 20 32 c19 29 30 33 188 73 115 29 167 38 167 29 0 -6 -9 -38
-20 -70 -11 -32 -20 -62 -20 -67 0 -4 40 -8 88 -8 l88 0 219 456 c157 328 226
461 244 473 13 9 97 54 185 101 l161 85 41 168 c23 92 44 170 46 173 11 10
171 -249 214 -346 25 -58 47 -106 48 -107 1 -2 21 5 44 14 38 14 42 19 42 50
0 43 -58 1071 -64 1143 l-5 55 115 145 c63 80 119 146 124 148 5 2 38 -53 72
-122 l63 -126 -109 -922 c-60 -508 -111 -939 -113 -958 -4 -33 4 -44 116 -170
119 -133 120 -135 93 -142 -127 -31 -176 -47 -312 -99 -236 -92 -516 -243
-685 -368 -249 -185 -471 -427 -606 -660 -140 -242 -201 -548 -151 -751 45
-178 176 -385 325 -511 146 -123 377 -257 689 -399 101 -46 209 -99 240 -117
69 -40 122 -100 142 -161 18 -53 21 -160 5 -215 -6 -22 -9 -40 -7 -42 5 -5
194 -35 221 -35 17 0 33 16 64 63 120 183 87 338 -101 471 -75 53 -174 103
-421 213 -346 154 -497 245 -646 393 -54 54 -111 121 -131 155 -137 237 -154
490 -52 795 136 409 397 684 823 866 102 44 257 94 290 94 9 0 -9 -17 -39 -38
-361 -247 -584 -468 -677 -669 -24 -51 -27 -71 -28 -158 0 -93 2 -105 32 -165
141 -284 633 -570 1292 -750 295 -81 568 -124 891 -141 419 -21 608 -62 805
-176 198 -114 354 -279 451 -476 21 -42 42 -77 46 -77 17 0 398 213 398 223 0
23 -120 187 -190 261 -236 248 -457 336 -1165 466 -1014 187 -1731 380 -2020
545 -142 81 -190 149 -188 265 2 162 116 340 413 644 217 222 373 353 649 543
l113 78 112 210 c62 116 209 392 328 615 119 223 224 422 234 443 16 33 40 50
183 134 92 53 242 141 334 195 l169 100 89 -22 c49 -12 91 -25 93 -29 2 -3 25
-213 51 -466 26 -253 49 -462 51 -464 4 -4 123 -30 142 -31 9 0 12 46 12 199
l0 199 73 9 c39 5 75 7 79 4 4 -4 52 -285 107 -626 56 -341 103 -630 106 -642
5 -19 12 -22 85 -25 l80 -3 -1 55 c0 30 -4 95 -8 144 -4 57 -3 90 4 92 17 6
167 -23 174 -34 3 -5 49 -64 101 -131 l95 -121 118 0 118 0 -165 197 -166 197
-157 56 -158 56 -12 54 c-7 30 -49 246 -94 480 -44 234 -82 426 -83 428 -2 1
-77 14 -167 30 l-164 27 -31 218 c-16 119 -34 221 -40 226 -5 4 -83 28 -173
51 -90 24 -165 50 -168 56 -2 7 -49 196 -103 421 -56 233 -104 411 -112 416
-7 4 -74 40 -148 80 l-135 72 -3 72 -3 71 -40 16 c-22 9 -45 16 -52 16 -6 -1
-88 -41 -182 -91z m171 -153 c16 -49 25 -60 106 -122 48 -38 88 -69 88 -70 0
-2 34 -191 75 -421 41 -230 75 -423 75 -429 0 -6 -134 -98 -299 -205 l-298
-194 -269 -425 c-147 -234 -331 -525 -408 -647 -78 -122 -143 -219 -147 -215
-3 4 -33 80 -68 169 l-62 161 56 454 c30 250 55 462 55 471 0 32 18 17 88 -71
l71 -88 27 -160 c15 -87 30 -162 33 -166 4 -4 23 4 44 18 29 19 36 30 32 47
-2 12 -14 85 -25 162 -11 77 -25 150 -30 162 -5 13 -50 81 -100 152 l-90 129
0 321 0 322 -71 134 c-81 154 -88 135 61 155 l85 12 25 -29 c14 -15 43 -49 65
-75 l40 -47 409 274 c225 151 411 275 412 275 2 0 11 -24 20 -54z"/>
<path d="M7255 8715 c-214 -145 -395 -264 -401 -264 -6 -1 -39 33 -73 74 -61
73 -63 75 -99 69 -20 -3 -59 -9 -87 -13 -27 -4 -49 -11 -48 -17 1 -5 29 -60
62 -123 l61 -113 0 -322 0 -321 95 -135 c53 -74 98 -144 100 -155 6 -24 55
-339 55 -351 0 -11 -109 -78 -116 -72 -2 3 -18 83 -35 179 -33 190 -21 162
-131 302 -20 25 -11 78 -78 -474 l-49 -406 55 -144 c30 -79 57 -145 59 -147 5
-5 15 11 335 518 134 212 294 465 355 562 l112 178 294 191 c162 105 295 192
297 193 8 8 -150 843 -161 851 -147 110 -164 127 -176 165 -6 22 -17 40 -24
39 -7 0 -187 -119 -402 -264z"/>
<path d="M6251 8375 l-105 -133 3 -58 c1 -33 15 -288 32 -569 38 -660 38 -611
-8 -631 -78 -32 -80 -30 -132 88 -26 58 -79 155 -118 214 l-71 107 -11 -39
c-6 -21 -23 -91 -38 -156 l-26 -116 -181 -95 -181 -94 -90 -179 c-50 -98 -150
-303 -222 -454 l-132 -275 535 -8 535 -8 137 55 c135 53 223 82 271 88 23 3
15 14 -83 123 -59 66 -110 125 -113 132 -2 6 46 440 108 964 l112 952 -54 109
c-30 61 -56 111 -59 113 -3 2 -52 -57 -109 -130z"/>
<path d="M8210 7777 c-58 -35 -204 -120 -325 -191 l-220 -127 -270 -507 c-148
-279 -305 -573 -348 -654 l-79 -148 -151 -104 c-236 -163 -355 -263 -577 -485
-221 -221 -333 -359 -397 -487 -33 -67 -38 -89 -41 -159 -5 -98 13 -142 80
-200 194 -167 984 -398 2003 -585 182 -33 393 -74 470 -91 263 -58 483 -142
629 -242 121 -82 273 -247 350 -379 15 -27 33 -48 40 -48 16 0 249 158 376
255 533 409 987 971 1270 1570 94 199 221 527 208 540 -2 2 -739 9 -1638 15
-899 7 -1637 13 -1639 16 -4 3 26 174 31 179 2 2 254 6 560 10 l557 8 -5 26
c-3 14 -49 300 -104 635 -54 334 -101 611 -104 613 -3 3 -30 2 -61 -2 l-55 -6
0 -198 c0 -109 -2 -200 -5 -203 -5 -5 -186 28 -190 35 -1 1 -24 211 -50 467
-26 256 -48 466 -48 467 -1 0 -31 9 -67 18 -36 9 -72 18 -80 20 -8 3 -62 -23
-120 -58z"/>
<path d="M9295 6117 c3 -67 9 -130 11 -139 5 -16 21 -18 154 -18 82 0 151 3
153 8 3 4 -39 61 -92 127 -101 126 -91 119 -200 139 l-33 6 7 -123z"/>
<path d="M4632 6071 c-136 -34 -172 -52 -172 -83 0 -5 64 -7 142 -6 l141 3 19
55 c10 30 17 57 16 60 -2 4 -68 -10 -146 -29z"/>
<path d="M2671 5952 c0 -9 11 -53 23 -97 l22 -80 140 -6 c76 -4 730 -7 1452
-8 l1314 -1 131 74 c73 41 150 83 172 94 l39 20 -404 6 c-223 3 -964 8 -1647
11 -1178 5 -1243 4 -1242 -13z"/>
<path d="M9556 5944 c-852 -8 -1551 -16 -1554 -18 -4 -4 -31 -120 -32 -137 0
-4 474 -9 1053 -13 578 -3 1311 -9 1628 -12 l577 -6 29 93 c16 52 28 97 26
102 -2 4 -43 6 -91 6 -48 -1 -784 -8 -1636 -15z"/>
<path d="M5980 5715 c-307 -112 -576 -306 -728 -528 -154 -224 -253 -539 -239
-766 14 -223 92 -388 258 -546 143 -135 284 -217 669 -389 273 -123 371 -179
455 -261 78 -76 109 -149 102 -240 -5 -70 -37 -151 -84 -212 -18 -24 -33 -45
-33 -47 0 -2 53 -9 118 -15 64 -6 138 -14 165 -17 104 -11 577 -4 732 11 408
39 809 131 1176 269 154 58 329 132 341 144 23 23 -124 256 -235 369 -125 129
-252 209 -427 271 -156 55 -293 75 -633 92 -523 27 -1027 149 -1497 364 -370
169 -627 379 -700 574 -92 241 86 529 530 860 121 90 137 102 130 102 -3 -1
-48 -17 -100 -35z"/>
<path d="M2716 5718 c20 -67 108 -297 150 -393 544 -1245 1664 -2178 3005
-2504 250 -60 224 -60 238 -7 19 77 14 174 -13 231 -41 89 -89 122 -368 249
-619 282 -875 500 -1002 854 -30 84 -31 93 -30 242 0 134 4 168 27 253 48 180
141 367 265 534 95 127 325 353 467 458 66 49 124 92 129 97 6 4 -639 8 -1433
8 l-1442 0 7 -22z"/>
</g>
</svg>
