<?xml version="1.0" encoding="utf-8"?>
<!-- Generator: Adobe Illustrator 26.5.0, SVG Export Plug-In . SVG Version: 6.00 Build 0)  -->
<svg version="1.1" xmlns="http://www.w3.org/2000/svg" xmlns:xlink="http://www.w3.org/1999/xlink" x="0px" y="0px"
	 viewBox="0 0 1400 1000" style="enable-background:new 0 0 1400 1000;" xml:space="preserve">
<style type="text/css">
	.st0{fill:#AB4709;}
	.st1{fill:#A84724;}
	.st2{display:none;}
	.st3{display:inline;}
	.st4{fill:none;stroke:#FFFFFF;stroke-width:2;stroke-miterlimit:10;}
</style>
<g id="Layer_9">
</g>
<g id="Layer_1">
</g>
<g id="Layer_2">
</g>
<g id="Layer_4">
</g>
<g id="Layer_3">
	<ellipse class="st0" cx="697.3" cy="500.6" rx="445.6" ry="430.9"/>
	<path class="st1" d="M652.5,788.7"/>
</g>
<g id="Layer_5" class="st2">
	<g id="Fbi3Ei_00000123430873629853920230000001718805947356870552_" class="st3">
		
			<image style="overflow:visible;" width="225" height="224" id="Fbi3Ei_00000042008651444626085230000006744037892521458319_" xlink:href="F21173EE7C189638.jpg"  transform="matrix(4.0397 0 0 3.9162 218.5929 53.696)">
		</image>
	</g>
</g>
<g id="Layer_6">
	<path class="st4" d="M405.3,602.6c10.4-8.3,20.7-16.7,31.1-25l54.3-7.4l32.4-70.5l35-21.9l27.1-91l46.4-59.5h43.8l95.4-49.9
		l10.5,4.4v14l29.8,15.8l20.1,84l35,9.6l6.1,44.6l33.3,5.3l18.4,96.3l31.5,11.2c11.7,13.9,23.4,27.9,35.2,41.8c-8.8,0-17.5,0-26.3,0
		c-7-8.9-14.1-17.8-21.1-26.8l-15.8-2.6c0.7,9.9,1.5,19.7,2.2,29.6c-6.2,0-12.5-0.1-18.7-0.1c-7-43.4-14.1-86.8-21.1-130.1l-14,1.8
		v40.3l-17.5-3.5l-9.6-93.6l-17.5-4.4l-65.6,38.5l-70,131.3c-37.2,23.3-63.1,47.4-79.8,65.1c-26.4,28-40.9,48.1-36.8,66.6
		c3,13.6,17.7,30.7,163,62.6c83.3,18.3,137.5,16.5,176.5,60.5c8.6,9.7,14.2,18.9,17.6,25.2c-14.3,7.7-28.6,15.5-42.8,23.2
		c-5.6-13-15.6-31-33.5-45.8c-33.7-27.7-74.8-27-98.4-28c-95.3-4.3-212.2-51.9-220.6-100.2c-2.4-13.8,1.3-43.5,73.8-91.6
		c-8.9,2-75.6,18.2-102.4,79.7c-5.3,12.1-20.2,46.4-7.2,80.6c26.3,69.3,140.7,68.9,143.9,115c0.8,12.1-6.3,22.6-12.9,30
		c-8.6-1.4-17.1-2.8-25.7-4.2c2.4-6.4,4.7-16,1.5-25.8c-6.4-19.1-28.6-20.7-67.1-41.8c-23.7-13-45.2-25.1-60.4-49.2
		c-3.8-6.1-11.7-18.8-14.4-36.4c0,0-11.6-74,89-142.4c1.9-1.3,3.3-2.2,4.3-2.9c16.5-10.8,35.3-19.3,35.3-19.3c1.4-0.4,3.6-1.1,6.1-2
		c10.6-3.6,16.5-6.5,21.8-8.6c5.2-2.1,12.8-4.6,22.8-6l-23.6-26.4l22.8-191.5l-12.3-24.5l-22.8,28.9l7,123.4l-10.5,4.4l-9.6-21.9
		l-15.8-23.6l-7.9,33.3l-36.8,19.3c-14.9,30.8-29.7,61.6-44.6,92.4c-6.7,0.1-13.5,0.2-20.2,0.3c1.7-5.2,3.5-10.4,5.2-15.6l-32.4,7.9
		c-1.3,2.3-2.6,4.6-3.9,6.9C431,602.2,418.1,602.4,405.3,602.6z"/>
	<path class="st4" d="M778,1029.8"/>
	<path class="st4" d="M457.2,943"/>
	<path class="st4" d="M271.3,624.3"/>
</g>
<g id="Layer_7">
	<path class="st4" d="M798.9,606c63.9-0.5,127.8-1,191.7-1.6c46.6-0.4,93.1-0.8,139.7-1.1c-2.2,7.2-4.5,14.4-6.7,21.6
		c-109.3-0.7-218.6-1.4-327.9-2L798.9,606z"/>
	<path class="st4" d="M265,602c113.1,0.6,226.3,1.1,339.4,1.7c-13.8,7.1-27.6,14.2-41.5,21.2c-97.3-0.1-194.6-0.2-291.8-0.4
		C269.1,617,267.1,609.5,265,602z"/>
	<path class="st4" d="M1147,555.7"/>
	<path class="st4" d="M1139.6,642.9"/>
	<path class="st4" d="M989.9,605.5"/>
</g>
<g id="Layer_8">
	<polygon class="st4" points="652.3,341.6 665.8,367.4 665.8,431.6 685.5,459.7 691.1,495.7 681,501.9 674.8,467 661.3,450.1 
		650.1,543 662.4,575.1 743.5,446.8 803.1,407.9 787.9,323 770.5,309.5 767.1,299.4 685.2,354.3 672.3,339 	"/>
</g>
</svg>
