<?xml version="1.0" encoding="UTF-8"?>
<svg id="Layer_1" data-name="Layer 1" xmlns="http://www.w3.org/2000/svg" viewBox="0 0 854.63 164.32">
  <defs>
    <style>
      .cls-1 {
        fill: #010101;
      }

      .cls-2 {
        fill: #ab4925;
      }

      .cls-3 {
        fill: none;
        stroke: #fff;
        stroke-miterlimit: 10;
        stroke-width: .5px;
      }
    </style>
  </defs>
  <g>
    <path class="cls-1" d="M39,36.01H5.44V11.7H75.84L37.99,94.25h37.61v24.31H1.27L39,36.01Z"/>
    <path class="cls-1" d="M86.22,11.7h25.58V118.56h-25.58V11.7Z"/>
    <path class="cls-1" d="M264.11,11.44h25.7l30.39,59.28V11.44h25.58V118.56h-25.32l-30.77-59.8v59.8h-25.58V11.44Z"/>
    <path class="cls-1" d="M430.35,11.31h24.44c39.88,0,56.85,24.18,56.85,53.3s-16.97,53.95-56.85,53.95h-24.44V11.31Zm27.6,80.86c19.63,0,28.11-12.48,28.11-27.56s-8.48-27.04-28.11-27.04h-2.15v54.6h2.15Z"/>
    <path class="cls-1" d="M523.54,11.7h59.51v24.57h-34.06v18.46h31.15v19.5h-31.15v19.5h34.06v24.83h-59.51V11.7Z"/>
    <path class="cls-1" d="M610.52,36.14h-20.89V11.31h67.36v24.83h-21.02V118.56h-25.45V36.14Z"/>
    <path class="cls-1" d="M719.03,105.3h-40.26l-4.3,13.26h-26.72l37.99-106.99h26.34l37.35,106.99h-26.08l-4.3-13.26Zm-6.58-20.41l-13.55-42.25-13.55,42.25h27.1Z"/>
    <path class="cls-1" d="M756.12,11.7h25.58V118.56h-25.58V11.7Z"/>
    <path class="cls-1" d="M797.27,11.31h25.45V93.73h30.64v24.83h-56.09V11.31Z"/>
  </g>
  <ellipse class="cls-2" cx="187.85" cy="65.69" rx="60.12" ry="62.33"/>
  <path class="cls-3" d="M148.45,65.78c1.4-1.21,2.8-2.41,4.19-3.62l7.32-1.06,4.37-10.2,4.72-3.16,3.66-13.17,6.26-8.61h5.9l12.87-7.22,1.42,.63v2.03l4.01,2.28,2.72,12.15,4.72,1.39,.83,6.46,4.49,.76,2.48,13.93,4.25,1.62,4.6,5.89c-1.13,.05-2.27,.1-3.4,.16-.95-1.29-1.9-2.58-2.85-3.87l-2.13-.38c.09,1.38,.19,2.76,.28,4.14-.84,0-1.69,0-2.53,0-.94-6.24-1.89-12.47-2.83-18.71l-1.89,.25v5.82l-2.36-.51-1.3-13.55-2.36-.63-8.86,5.57-9.45,18.99c-5.02,3.36-8.51,6.86-10.76,9.42-3.56,4.05-5.52,6.95-4.96,9.64,.41,1.97,2.39,4.44,21.99,9.05,16.07,3.78,20.25,4.54,23.81,8.75,4.2,4.96,4.82,11.79,4.71,16.68-3.9,2.22-7.81,4.44-11.71,6.65,3.35-5.09,7.18-12.39,4.82-17.66-2.08-4.65-7.64-4.89-19.16-8.1-10.82-3.01-28.5-7.93-29.62-15.74-.32-2.21,.42-6.5,9.95-13.25-1.2,.29-10.19,2.63-13.81,11.53-.59,1.45-2.61,6.41-.97,11.65,3.45,11.07,19.48,11.59,19.7,19.33,.08,2.86-1.3,6.27-2.61,9.22-1.23,2.76-2.63,4.86-3.71,6.3-3.09-.96-6.18-1.92-9.27-2.88,2.22-.76,7.3-2.9,10.03-8.39,.69-1.4,1.08-2.1,.98-2.98-.52-4.49-10.69-5.31-15.96-12.36-.84-1.12-3.37-4.5-3.84-9.34-.03-.3-.04-.53-.05-.68-.76-11.62,10.94-19.86,12.59-21.02,2.22-1.57,4.77-2.79,4.77-2.79,2.69-1.29,5.09-2,6.85-2.41l-3.19-3.82,3.07-27.7-1.65-3.54-3.07,4.18,.94,17.85-1.42,.63-1.3-3.16-2.13-3.42-1.06,4.81-4.96,2.79c-2,4.46-4.01,8.91-6.01,13.37-.91,.01-1.81,.02-2.72,.04,.23-.75,.47-1.51,.7-2.26l-4.37,1.14c-.18,.33-.35,.67-.53,1-1.73,.03-3.46,.05-5.2,.08Z"/>
  <path class="cls-3" d="M201.55,66.27c15.47-.19,30.95-.38,46.42-.58-.03,1.09-.05,2.19-.08,3.28-15.59-.09-31.18-.18-46.77-.27l.43-2.44Z"/>
  <path class="cls-3" d="M127.84,65.69c15.82,.08,31.65,.16,47.47,.25-1.86,1.02-3.73,2.05-5.59,3.07-13.93,.01-27.87,.03-41.8,.04l-.07-3.35Z"/>
  <polygon class="cls-3" points="181.78 28.02 183.6 31.77 183.6 41.05 186.25 45.11 187.01 50.32 185.65 51.22 184.81 46.17 182.99 43.73 181.47 57.16 183.14 61.8 194.07 43.24 202.12 37.63 200.07 25.34 197.72 23.39 197.26 21.92 186.22 29.87 184.47 27.66 181.78 28.02"/>
</svg>